<?xml version="1.0" standalone="no"?>
<!DOCTYPE svg PUBLIC "-//W3C//DTD SVG 20010904//EN"
 "http://www.w3.org/TR/2001/REC-SVG-20010904/DTD/svg10.dtd">
<svg version="1.0" xmlns="http://www.w3.org/2000/svg"
 width="1024.000000pt" height="1024.000000pt" viewBox="0 0 1024.000000 1024.000000"
 preserveAspectRatio="xMidYMid meet">
<metadata>
Created by potrace 1.11, written by Peter Selinger 2001-2013
</metadata>
<g transform="translate(0.000000,1024.000000) scale(0.100000,-0.100000)"
fill="#000000" stroke="none">
<path d="M5018 9455 c-1 -1 -50 -6 -108 -9 -58 -4 -118 -8 -135 -10 -16 -2
-59 -7 -95 -11 -137 -14 -335 -44 -455 -69 -11 -2 -60 -12 -108 -22 -98 -19
-98 -21 2 -56 178 -63 570 -246 733 -344 141 -84 309 -192 408 -263 93 -66
286 -215 300 -230 3 -4 34 -31 70 -61 338 -287 689 -694 950 -1104 l54 -86 96
94 c52 51 131 121 175 156 78 62 249 180 260 180 3 0 24 11 46 26 128 80 348
173 558 234 73 22 88 25 146 36 17 3 48 9 70 14 36 8 63 11 180 26 17 2 102 7
190 10 88 4 162 8 164 10 8 8 -175 220 -282 325 -470 464 -1076 812 -1732 995
-103 29 -273 69 -326 78 -20 3 -42 8 -50 10 -8 3 -61 12 -119 20 -107 16 -135
19 -250 32 -36 3 -78 8 -95 11 -35 5 -642 13 -647 8z"/>
<path d="M4349 8006 c-2 -2 -38 -7 -79 -11 -80 -6 -205 -23 -230 -30 -8 -2
-33 -6 -55 -10 -22 -3 -47 -7 -55 -10 -8 -2 -26 -6 -40 -9 -229 -41 -597 -180
-845 -319 -153 -86 -369 -233 -474 -323 -174 -150 -311 -290 -437 -449 -63
-79 -176 -241 -210 -300 -106 -186 -156 -287 -218 -442 -34 -86 -99 -287 -110
-343 -3 -14 -10 -43 -15 -65 -6 -22 -13 -56 -16 -75 -3 -19 -8 -42 -10 -50 -2
-8 -7 -37 -11 -65 -3 -27 -8 -59 -10 -70 -26 -136 -26 -538 0 -735 58 -430
209 -834 450 -1200 117 -178 230 -315 385 -470 249 -248 490 -421 807 -578
103 -52 147 -71 249 -112 106 -42 326 -112 410 -130 80 -17 191 -38 220 -43
17 -3 46 -8 65 -11 111 -19 283 -30 470 -30 157 0 357 10 383 19 7 3 46 9 87
14 87 12 124 18 165 30 31 8 32 8 -100 36 -49 10 -279 80 -310 95 -11 5 -55
23 -98 40 -43 17 -129 55 -190 86 -716 357 -1252 974 -1502 1729 -76 228 -116
418 -142 675 -9 97 -10 429 0 499 29 208 31 217 67 369 130 538 387 997 780
1393 347 349 716 580 1173 733 100 34 300 86 329 86 49 0 -2 14 -127 36 -16 2
-37 7 -45 9 -8 2 -44 7 -80 10 -36 4 -74 9 -85 12 -24 6 -540 14 -546 9z"/>
<path d="M6636 3235 c-10 -28 -228 -353 -288 -430 -4 -5 -51 -66 -104 -135
-91 -118 -179 -225 -214 -261 -8 -9 -40 -45 -70 -80 -56 -66 -384 -396 -455
-460 -33 -29 -181 -153 -260 -218 -86 -71 -348 -255 -425 -299 -19 -11 -75
-44 -125 -72 -177 -104 -559 -273 -688 -305 -22 -6 -49 -25 -34 -25 2 0 82
-20 178 -44 96 -24 246 -56 334 -69 277 -44 374 -51 680 -52 217 0 409 8 471
19 11 2 51 7 89 11 39 4 79 9 90 11 10 2 37 6 60 10 56 8 270 52 319 65 23 6
48 12 56 14 14 3 119 34 255 76 231 70 635 256 835 383 125 80 268 175 313
208 28 21 63 46 76 56 48 34 208 166 299 247 66 58 318 309 377 375 116 130
297 350 318 386 4 7 -19 6 -71 -2 -74 -12 -457 -12 -508 -1 -21 5 -59 12 -131
23 -114 17 -363 83 -468 124 -28 11 -53 20 -57 20 -15 0 -231 96 -350 155
-140 70 -269 145 -397 229 -47 31 -88 56 -92 56 -4 0 -9 -7 -13 -15z"/>
</g>
</svg>
