<?xml version="1.0" standalone="no"?>
<!DOCTYPE svg PUBLIC "-//W3C//DTD SVG 1.1//EN" "http://www.w3.org/Graphics/SVG/1.1/DTD/svg11.dtd" >
<svg xmlns="http://www.w3.org/2000/svg">
<metadata>Generated by IcoMoon</metadata>
<defs>
<font id="icomoon" horiz-adv-x="1024">
<font-face units-per-em="1024" ascent="960" descent="-64" />
<missing-glyph horiz-adv-x="1024" />
<glyph unicode="&#x20;" horiz-adv-x="512" d="" />
<glyph unicode="&#xe900;" glyph-name="telephone" horiz-adv-x="1019" d="M988.968 213.558c19.806-19.806 29.642-44.463 29.642-74.105s-9.836-55.242-29.642-76.8l-26.947-26.947c-64.674-64.674-142.821-97.011-234.442-97.011-44.867 0-87.175 8.084-126.653 24.253-131.099 53.895-246.568 130.695-346.274 230.4s-176.505 215.175-230.4 346.274c-25.196 62.922-30.989 127.057-17.516 192.674s43.52 121.667 90.274 168.421l26.947 26.947c21.558 21.558 46.754 32.337 75.453 32.337s53.895-10.779 75.453-32.337c5.389-5.389 10.779-11.722 16.168-18.863l99.705-167.074c12.531-23.309 17.516-48.101 14.821-74.105s-13.878-48.101-33.684-66.021l-37.726-40.421c-3.638-3.638-4.446-7.141-2.695-10.779 46.754-106.038 119.512-188.632 218.274-247.916 12.531-7.141 14.821-17.112 6.737-29.642s-18.459-15.225-30.989-8.084c-106.038 64.674-184.185 153.6-234.442 266.779-9.027 23.309-5.389 44.059 10.779 61.979l40.421 37.726c25.196 26.947 28.699 55.646 10.779 86.232l-99.705 167.074c-3.638 5.389-7.141 9.027-10.779 10.779-10.779 12.531-24.657 18.863-41.768 18.863s-31.933-6.333-44.463-18.863l-26.947-24.253c-41.364-41.364-67.773-90.678-79.495-148.211s-6.737-113.179 14.821-167.074c52.143-125.709 125.709-236.194 220.968-331.453s205.743-168.825 331.453-220.968c53.895-21.558 109.541-26.543 167.074-14.821s106.846 38.131 148.211 79.495l24.253 26.947c12.531 12.531 18.863 27.352 18.863 44.463s-6.333 31.933-18.863 44.463c-3.638 1.752-7.141 4.446-10.779 8.084l-167.074 99.705c-32.337 17.92-61.036 14.417-86.232-10.779l-37.726-37.726c-17.92-17.92-38.669-22.501-61.979-13.474-12.531 5.389-16.168 14.821-10.779 28.295s15.225 17.516 29.642 12.126c3.638-1.752 7.141-0.943 10.779 2.695l37.726 37.726c19.806 19.806 42.712 30.989 68.716 33.684s50.796-2.291 74.105-14.821l167.074-99.705c7.141-5.389 13.474-10.779 18.863-16.168z" />
<glyph unicode="&#xe901;" glyph-name="list" d="M0 690.526v269.474h1024v-269.474h-1024zM0 313.263v269.474h1024v-269.474h-1024zM0-64v269.474h1024v-269.474h-1024z" />
<glyph unicode="&#xe909;" glyph-name="quick-menu" d="M960 292q64-36 64-108 0-52-36-88t-88-36q-34 0-62 16t-45 45-17 63q0 24 10 47t27 40 40 26 47 9q14 0 26-2 10 46 10 92 0 110-54 206t-148 154q-16 10-6 25t24 5q104-64 162-167t58-223q0-52-12-104zM900 94q36 0 62 26t26 63-26 63-62 26-62-26-26-63 26-63 62-26zM674 4q16 6 23-10t-9-24q-84-34-176-34-194 0-328 140-28-16-60-16-52 0-88 36t-36 88q0 24 10 47t26 40 39 26 49 9q50 0 87-36t37-86q0-52-36-88 124-124 300-124 84 0 162 32zM36 183q0-37 26-63t62-26 62 26 26 63-26 63-62 26-62-26-26-63zM70 408q-16 2-16 20 8 96 51 180t117 144 166 84q0 34 17 63t45 45 62 16 62-17 45-45 17-62q0-50-36-87t-88-37q-42 0-75 25t-43 65q-128-38-212-141t-92-235q-2-18-18-18h-2zM512 924q-36 0-62-26t-26-62 26-62 62-26 62 26 26 62-26 62-62 26z" />
<glyph unicode="&#xe90a;" glyph-name="empty-file" d="M820 796l204-328v-368h-1024v368l204 328h616zM230 756l-180-288h278v-82q0-34 24-58t58-24h204q34 0 58 24t24 58v82h278l-180 288h-564zM984 140v288h-246v-62q0-42-30-72t-74-30h-244q-44 0-74 30t-30 72v62h-246v-288h944z" />
<glyph unicode="&#xe90b;" glyph-name="dots" d="M122 570q50 0 86-36t36-86-36-86-86-36-86 36-36 86 36 86 86 36zM512 570q50 0 86-36t36-86-36-86-86-36-86 36-36 86 36 86 86 36zM902 570q50 0 86-36t36-86-36-86-86-36-86 36-36 86 36 86 86 36z" />
<glyph unicode="&#xe90c;" glyph-name="profile" d="M1024 448q0-154-86-284l-4-6-10-12-1-2t-1-4q-6-8-14-16 0-2-4-4-28-36-64-64 0-2-2-3l-2-1-16-12q0-2-6-6-10-6-16-10 0-2-4-4-2 0-4-2l-20-12q-12-6-16-10-2 0-10-4l-16-8q-4-2-10-4-8-4-20-8l-2-1t-4-1q-28-12-56-18l-2-2q-12-2-26-4-2-2-6-2h-2l-8-2h-10q0-2-1-2h-9q-10-2-22-2h-4t-4-2h-60l-2 1t-3 1h-3q-12 0-22 2h-10l-2 2h-8l-8 2h-2q-6 0-6 2-14 2-26 4l-2 2q-28 6-56 18-2 0-6 2-12 4-20 8-4 2-10 4-8 4-17 8l-9 4q-6 4-14 10-12 6-22 12l-4 2-4 4q-6 4-16 10l-6 6-16 12-2 1t-2 3q-36 28-64 64l-4 4q-8 8-14 16l-2 6-10 12-4 6q-86 130-86 284 0 212 150 362t362 150 362-150 150-362zM990 448q0 100-39 190t-109 156-160 100q72-64 84-158t-36-199-128-135q-4 0-4-6v-10q0-6 6-6h120v-2q72-4 128-50t76-114q62 110 62 234zM896 164q2 2 6 10-8 68-57 115t-117 55l-72-178-76 52v-44h-14l30-196h6q10 2 22 6h4q26 6 52 16l1 1t3 1l20 8q2 2 8 4 6 4 14 8 6 2 10 4t12 8h2v106h36v-84q4 4 8 6l4 4q8 4 16 12l4 4q8 6 14 12l4 2q22 22 44 48v0q6 6 12 16zM400-16q12-4 22-6h6l30 196h-14v44l-76-52-72 178q-44-4-82-28t-62-61-30-81q4-8 5-9l5-5q6-10 12-16v0q20-26 44-48 2 0 3-1l1-1q6-6 14-12l4-4q8-8 16-12l4-4q4-2 8-6v84h36v-106h2q8-6 12-8 2-2 10-4 8-4 14-8 6-2 8-4l20-8 4-2q26-10 52-16h4zM436 434q24-10 24-38v-10q0-34-32-40l30-34h108l30 34q-32 6-32 40v10q0 28 26 38 62 24 105 112t39 170q-52 66-136 94-38-72-120-72-30 0-56 12-32 14-65 8t-55-32l-12-16v-6q0-78 43-163t103-107zM512 926q-92 0-156-64-40-40-56-94 62 46 136 12 20-8 42-8 20 0 39 8t34 23 21 33l6 14 16-4q70-20 128-68-22 60-72 100t-112 46q-12 2-24 2h-2zM580 274v-16l60-40 52 128h-52zM552-28h10l-30 202h-40l-30-202h10q12 0 14-2h52q4 2 14 2zM546 210v68h-68v-68h68zM444 274l-60 72h-52l52-128 60 40v16zM342 894q-138-52-223-174t-85-272q0-124 62-234 20 70 78 115t130 51h116q6 0 6 6v10q0 6-2 6-36 14-67 47t-53 75-35 90-13 90q0 106 76 182z" />
<glyph unicode="&#xe90d;" glyph-name="people" d="M938 186q40-20 63-57t23-81v-70h-1024v66q0 80 70 118l114 72q20 10 20 32v46q-46 50-62 108-22 18-22 48v58q0 22 16 40v78q0 6 2 18t14 37 30 46 55 37 87 16q60 0 104-22 4 46 34 82 54 60 170 60t168-60q42-48 36-112v-92q18-18 18-44v-68q0-44-40-62-18-54-50-98-8-10-14-18v-56q0-28 26-42zM238 50q0 44 22 80t60 56l96 52 2 8 8-2 46 26q22 12 22 38v58l-2 4q-6 6-12 16v2l-8 12-2 4q-4 6-6 11l-2 5-2 2q-2 4-4 10 0 2-1 2t-1 2l-2 2v2q-2 4-4 10 0 2-1 3l-1 1q-2 4-4 10l-2 6v2l-2 4q0 6-2 12-12 10-20 24 0 2-2 8 0 2-1 4l-1 2q-2 8-2 16v68q0 26 16 44v82q-40 28-102 28-40 0-71-13t-46-28-24-35-10-29-3-15v-92l-4-6q-12-10-12-20v-58q0-16 12-24l6-4 2-6q14-60 58-102l6-4v-62q0-42-36-62l-114-72q-54-28-54-88v-32h204v38zM990 12v36q0 34-18 63t-48 43l-164 82q-44 22-44 72v70l6 4q6 8 14 18 30 44 48 98l2 8 8 4q26 6 26 32v68q0 14-12 26l-6 4v108q4 52-28 86-42 50-143 50t-143-50q-30-34-28-80v-114l-4-4q-12-12-12-26v-68q0-18 16-28l6-4v-8q2-6 6-16v-4q4-8 6-14 0-2 2-8l2-2q0-4 2-6v-2h2q2-8 6-14 6-12 12-22 2-6 6-10 4-6 8-14l4-4t2-4h2l4-4v-70q0-46-42-68l-152-84q-62-34-62-106v-38h716z" />
<glyph unicode="&#xe90e;" glyph-name="filters" d="M146 704q-52 0-90 38t-38 90 38 90 90 38q48 0 84-31t42-79h716q18 0 18-18t-18-18h-716q-4-30-22-56t-45-40-59-14zM146 924q-38 0-65-27t-27-65 27-65 65-27q26 0 47 13t33 34 12 45q0 38-27 65t-65 27zM878 192q52 0 90-38t38-90-38-90-90-38q-48 0-84 31t-42 79h-716q-18 0-18 18t18 18h716q6 48 42 79t84 31zM878-28q38 0 65 27t27 65-27 65-65 27-65-27-27-65q0-18 7-35t20-29 30-20 35-8zM988 466q18 0 18-18t-18-18h-342q-6-32-24-57t-46-39-60-14q-48 0-85 31t-45 79h-350q-18 0-18 18t18 18h348q6 50 44 84t88 34q34 0 62-16t47-43 21-59h342zM516 356q40 0 67 28t27 68-27 67-67 27-68-27-28-67 28-68 68-28z" />
<glyph unicode="&#xe90f;" glyph-name="mail" d="M976 816q20 0 34-14t14-34v-640q0-20-14-34t-34-14h-928q-20 0-34 14t-14 34v640q0 20 14 34t34 14h928zM48 784h-2l466-316 466 316h-930zM992 128v626l-350-238 202-200-24-24-206 206-94-64q-4-2-8-2t-8 2l-94 64-206-206-24 24 202 200-350 238v-626q0-16 16-16h928q16 0 16 16z" />
<glyph unicode="&#xe910;" glyph-name="delete" d="M708 606l-18-474-80 4 16 474zM472 134v474h80v-474h-80zM414 136l-80-4-18 474 80 4zM34 806h956v-80h-86l-66-754q-2-14-13-25t-27-11h-574q-16 0-27 11t-13 25l-66 754h-84v80zM762 16l62 710h-626l64-710h500zM644 960q26 0 46-20t20-46v-128h-80v114h-236v-114h-80v128q0 26 20 46t46 20h264z" />
<glyph unicode="&#xe911;" glyph-name="knowledge" d="M948 934q30 0 53-22t23-54v-632q0-32-23-54t-53-22h-306q-4-50 36-78l30-20q2-2 4-6 12 0 20-6t13-15 5-21q0-18-12-30t-30-12h-392q-18 0-30 12t-12 30q0 16 11 28t27 14q2 4 4 6l30 22q40 26 36 76h-306q-30 0-53 22t-23 54v632q0 20 10 38t28 28 38 10h872zM34 858v-520h956v520q0 12-6 21t-16 15-20 6h-872q-16 0-29-12t-13-30zM708-4q8 0 8 8t-8 8h-392q-8 0-8-8t8-8h392zM608 150h-192q4-66-46-104h284q-50 38-46 104zM990 226v76h-956v-76q0-18 13-30t29-12h872q16 0 29 12t13 30zM85 764q-7 0-11 4-12 12 0 24l68 70q12 12 24 0t0-26l-68-68q-6-4-13-4zM85 678q-7 0-11 6-12 12 0 24l34 34q12 12 24 0t0-24l-34-34q-6-6-13-6zM142 776q12 12 24 0 4-6 4-13t-5-12-12-5-12 5-5 12 6 13zM176 786q-12 12 0 24l50 52q12 12 25 0t1-26l-52-50q-6-6-13-6t-11 6zM226 776q12 12 25 0t1-24l-154-154q-6-4-13-4t-11 4q-12 12 0 24zM260 810q14 12 26 0 4-6 4-13t-5-12-12-5-12 5-5 12 4 13zM312 862q12 12 24 0t0-26l-16-16q-6-6-13-6t-11 6q-12 12 0 24z" />
<glyph unicode="&#xe912;" glyph-name="update-file" d="M622 584q18 0 18-17t-18-17h-426q-16 0-16 17t16 17h426zM196 686q-16 0-16 18t16 18h170q18 0 18-18t-18-18h-170zM640 431q0-17-18-17h-426q-16 0-16 17t16 17h426q18 0 18-17zM504 295q0-17-18-17h-290q-16 0-16 17t16 17h290q18 0 18-17zM196 174h240q16 0 16-17t-16-17h-240q-16 0-16 17t16 17zM42 926v-956h564v-34h-598v1024h554l248-248v-264h-34v238h-238v240h-496zM572 902v-180h180zM985 141q17-3 13-21-16-82-76-133t-142-51q-66 0-123 37t-85 97v-66h-34v136h136v-34h-80q20-60 71-98t115-38q68 0 119 43t65 115q4 16 21 13zM982 346h34v-136h-138v34h80q-24 54-72 86t-106 32q-66 0-120-40t-72-100q-4-18-21-13t-11 21q20 74 83 120t141 46q64 0 118-33t84-91v74z" />
<glyph unicode="&#xe913;" glyph-name="add-file" d="M214 550q-18 0-18 17t18 17h426q18 0 18-17t-18-17h-426zM214 686q-18 0-18 18t18 18h170q18 0 18-18t-18-18h-170zM214 414q-18 0-18 17t18 17h426q18 0 18-17t-18-17h-426zM504 312q16 0 16-17t-16-17h-290q-18 0-18 17t18 17h290zM452 174q18 0 18-17t-18-17h-238q-18 0-18 17t18 17h238zM828 374q74-18 122-78t48-138q0-92-65-157t-157-65h-750v1024h552l250-248v-338zM588 902v-180h182zM658-30l-1 1t-3 1l-4 4q-8 6-14 10l-2 2q-6 4-12 12-2 2-4 2-6 8-12 14l-2 2q-6 6-10 14l-1 1t-1 3q-6 6-10 16l-2 2q-4 8-6 16-2 0-2 1v1q-4 10-6 18 0 2-1 3l-1 1q-2 10-4 18v2q-2 8-4 20v4q-2 12-2 20 0 60 30 111t81 81 111 30q8 0 18-2v308h-240v240h-494v-956h598zM776-30q78 0 133 55t55 133q0 66-42 118t-106 66h-8q-8 2-16 2-10 2-16 2-78 0-133-55t-55-133q0-38 15-73t40-60 60-40 73-15zM878 174q18 0 18-17t-18-17h-84v-84q0-18-17-18t-17 18v84h-86q-16 0-16 17t16 17h86v86q0 18 17 18t17-18v-86h84z" />
<glyph unicode="&#xe914;" glyph-name="download-file" d="M994 460q12 0 21-9t9-21v-266q0-78-56-134t-134-56h-644q-78 0-134 55t-56 135v270q0 14 9 22t21 8 20-8 8-22v-270q0-54 39-93t93-39h644q54 0 93 39t39 93v266q0 12 8 21t20 9zM492 206l-188 186q-20 22 1 43t41-1l136-136v596q0 12 9 20t21 8 21-8 9-20v-596l136 136q20 22 41 1t1-43l-188-186q-8-8-20-8t-20 8z" />
<glyph unicode="&#xe915;" glyph-name="edit" d="M958 894q66-66 66-160t-66-160l-586-586q-8-8-21-8t-21 8l-236 236-30-224 156 20q12 2 21-5t11-19-5-22-21-12l-192-26h-4q-12 0-22 8-10 12-8 26l44 322q2 8 8 16l586 586q66 66 160 66t160-66zM650 822l-536-536 100-98 534 536zM352 50l534 536-96 96-536-536zM926 628q40 46 40 106 0 70-49 119t-119 49q-60 0-106-40z" />
<glyph unicode="&#xe916;" glyph-name="status" d="M832 896q34 0 57-23t23-57v-800q0-34-23-57t-57-23h-640q-34 0-57 23t-23 57v800q0 34 23 57t57 23h160q24 32 64 32h42q18 32 54 32t54-32h42q40 0 64-32h160zM366 848v-48h292v48q0 22-15 36t-35 14h-50q-12 0-16 10-6 22-30 22t-30-22q-4-10-16-10h-50q-20 0-35-14t-15-36zM882 16v800q0 22-15 36t-35 14h-146q2-8 2-18v-64q0-14-16-14h-320q-16 0-16 14v64q0 10 2 18h-146q-20 0-35-14t-15-36v-800q0-22 15-36t35-14h640q20 0 35 14t15 36zM832 832q16 0 16-16v-800q0-16-16-16h-640q-16 0-16 16v800q0 16 16 16h96q14 0 14-15t-14-15h-82v-772h612v772h-82q-14 0-14 15t14 15h96zM512 896q6 0 11-4t5-11-5-11-11-4-11 4-5 11 5 11 11 4zM256 240q0 20 14 33t34 13q10 0 18-4l68 78q-6 12-6 24 0 20 14 33t34 13 33-13 13-33v-4l96-44q14 14 34 14h4l78 190q-16 14-16 36 0 20 13 34t33 14 34-14 14-34-14-33-34-13h-2l-78-190q16-14 16-36 0-20-14-34t-34-14-33 14-13 34v4l-96 44q-14-16-34-16-10 0-18 4l-70-78q6-10 6-22 0-20-13-34t-33-14-34 14-14 34zM721 594q-17 0-17-17t17-17 17 17-17 17zM609 320q-17 0-17-17t17-17 17 17-17 17zM431 400q-17 0-17-17t17-17 17 17-17 17zM320 239q0 17-17 17t-17-17 17-17 17 17z" />
<glyph unicode="&#xe918;" glyph-name="arrow" d="M172 626l340 334 340-334-26-28-294 290v-952h-40v952l-294-290z" />
<glyph unicode="&#xe91a;" glyph-name="grid" d="M0 690v270h270v-270h-270zM376 690v270h272v-270h-272zM754 690v270h270v-270h-270zM0 312v272h270v-272h-270zM376 312v272h272v-272h-272zM754 312v272h270v-272h-270zM0-64v270h270v-270h-270zM376-64v270h272v-270h-272zM754-64v270h270v-270h-270z" />
<glyph unicode="&#xe91b;" glyph-name="add-people" d="M904 242q34-28 34-72v-118q0-12-12-12t-12 12v118q0 32-26 54-110 90-240 154-12 6-12 18v164q0 6 6 10 30 20 30 54v170q0 58-42 100t-100 42h-36q-58 0-100-42t-42-100v-170q0-34 30-54 4-4 4-10v-164q0-14-10-18-132-64-240-154-26-22-26-54v-118q0-12-12-12t-12 12v118q0 44 34 72 110 90 242 156v156q-34 26-34 70v170q0 44 22 83t60 61 84 22h36q46 0 84-22t60-60 22-84v-170q0-44-34-70v-156q132-66 242-156zM658 108q14 0 14-13t-14-13h-134v-134q0-12-12-12t-12 12v134h-134q-14 0-14 13t14 13h134v134q0 12 12 12t12-12v-134h134z" />
<glyph unicode="&#xe91c;" glyph-name="location" d="M516 736q54 0 92-39t38-93-38-92-92-38-93 38-39 92q0 36 18 66t48 48 66 18zM515 512q39 0 66 27t27 66-27 66-65 27q-20 0-37-7t-30-20-20-30-7-37q0-38 27-65t66-27zM766 854q94-94 104-245t-72-259l-286-414-288 414q-80 108-70 259t104 245q106 106 254 106t254-106zM768 372q74 98 65 235t-93 221q-94 94-228 94t-228-94q-84-84-93-221t65-235l256-370z" />
<glyph unicode="&#xe91d;" glyph-name="experience" d="M972 730q22 0 37-15t15-37v-614q0-22-15-37t-37-15h-920q-22 0-37 15t-15 37v614q0 22 15 37t37 15h34v50h170v-50h68v98q0 24 16 40t38 16h268q22 0 38-16t16-40v-98h68v50h170v-50h34zM802 746v-16h102v16h-102zM358 828v-98h308v98q0 8-6 15t-14 7h-268q-8 0-14-7t-6-15zM324 696h-154v-650h684v650h-530zM120 746v-16h102v16h-102zM34 64q0-18 18-18h84v650h-84q-18 0-18-18v-614zM990 64v614q0 18-18 18h-84v-650h84q18 0 18 18z" />
<glyph unicode="&#xe91f;" glyph-name="search" d="M1000-32q12-14 0-26-6-6-14-6t-14 6l-288 300q-112-94-260-94-166 0-285 119t-119 287 119 287 286 119 286-119 119-287-118-286zM425 186q151 0 259 108t108 260-108 260-259 108-259-108-108-260 108-260 259-108z" />
<glyph unicode="&#xe920;" glyph-name="bell" d="M956 116q8-8 5-18t-15-12l-176-32q-48-8-92-14-12-24-30-43t-39-33-46-21-51-7q-52 0-97 28t-69 76q-44 6-92 14l-176 32q-12 2-15 12t5 18q124 124 124 304v168q0 42 14 82t38 71 53 54 61 39q28 12 58 20v12q0 26 12 48t34 34 46 12q40 0 67-27t27-67v-10q34-8 64-22 66-30 113-94t47-152v-168q0-174 130-304zM452 866v-4q56 10 112 2v2q0 24-16 40t-39 16-40-16-17-40zM512-26q74 0 120 62-62-8-120-8-56 0-120 6 46-60 120-60zM764 92l142 24q-118 134-118 304v168q0 72-40 129t-96 83q-34 16-72 22-72 16-142 0-34-8-66-22-58-28-100-85t-42-127v-168q0-176-112-304l142-24q56-10 100-16 22-2 40-4h2q16-2 34-4h6q14 0 30-2h80q14 2 30 2h6q20 2 36 4l40 4q46 6 100 16zM628 748q18-6 10-23t-26-9q-100 46-200 0-32-16-61-49t-29-79q0-18-18-18t-18 18q0 58 35 100t75 60q116 54 232 0z" />
<glyph unicode="&#xe921;" glyph-name="config" d="M512 714q110 0 188-78t78-188-78-188-188-78-188 78-78 188 78 188 188 78zM512 220q94 0 161 67t67 161-67 161-161 67-161-67-67-161 67-161 161-67zM972 562q22 0 37-16t15-36v-124q0-20-15-36t-37-16h-38q-16-54-44-104l28-26q14-16 14-38t-14-36l-88-88q-14-14-36-14t-38 14l-26 28q-50-28-104-44v-38q0-22-16-37t-36-15h-124q-20 0-36 15t-16 37v38q-54 16-104 44l-26-28q-16-14-38-14t-36 14l-88 88q-14 14-14 36t14 38l28 26q-28 50-44 104h-38q-22 0-37 16t-15 36v124q0 20 15 36t37 16h38q16 54 44 104l-28 26q-14 16-14 38t14 36l88 88q14 14 36 14t38-14l26-28q50 28 104 44v38q0 22 16 37t36 15h124q20 0 36-15t16-37v-38q54-16 104-44l26 28q16 14 38 14t36-14l88-88q14-14 14-36t-14-38l-28-26q28-50 44-104h38zM986 386v124q0 14-14 14h-68l-4 14q-16 64-50 120l-8 12 48 50q10 10 0 20l-86 86q-10 10-20 0l-50-48-12 8q-56 34-120 50l-14 4v68q0 14-14 14h-124q-14 0-14-14v-68l-14-4q-64-16-120-50l-12-8-50 48q-10 10-20 0l-86-86q-10-10 0-20l48-50-8-12q-34-56-50-120l-4-14h-68q-14 0-14-14v-124q0-14 14-14h68l4-14q16-64 50-120l8-12-48-50q-10-10 0-20l86-86q10-10 20 0l50 48 12-8q56-34 120-50l14-4v-68q0-14 14-14h124q14 0 14 14v68l14 4q64 16 120 50l12 8 50-48q10-10 20 0l86 86q10 10 0 20l-48 50 8 12q34 56 50 120l4 14h68q14 0 14 14zM512 638q78 0 134-56t56-134-56-134-134-56-134 56-56 134 56 134 134 56zM512 296q62 0 107 45t45 107-45 107-107 45-107-45-45-107 45-107 107-45z" />
</font>
</defs>
</svg>
