<svg id="Layer_1" data-name="Layer 1" xmlns="http://www.w3.org/2000/svg" viewBox="0 0 189.71 43.58"><defs><style>.cls-1{fill:#111313;}.cls-2{fill:#e32213;}</style></defs><title>logo-cheops</title><g id="cheops"><path class="cls-1" d="M190.45,21a2.25,2.25,0,0,0-.6-1.57c-.5-.48-1.06-.6-3-.6h-9c-2.78,0-3.53.33-3.53,1.57V21a1.36,1.36,0,0,0,1.16,1.36,9.76,9.76,0,0,0,2.14.12h10.13c2.13,0,3,.12,3.8.53a3.82,3.82,0,0,1,2.1,3.5v1.07c0,2.72-2.05,4.17-5.93,4.17H177.11c-3.79,0-5.39-1.27-5.93-4.65l3.18-.38a2.23,2.23,0,0,0,.59,1.57c.5.47,1.06.59,3,.59H187c2.81,0,3.53-.33,3.53-1.6v-.56a1.35,1.35,0,0,0-1.16-1.37,10,10,0,0,0-2.14-.12H177.08c-2,0-3-.11-3.79-.56a3.77,3.77,0,0,1-2.11-3.47V20.08c0-2.7,2-4.15,5.93-4.15h10.58c3.8,0,5.4,1.27,5.93,4.65l-3.17.39" transform="translate(-4 -3.21)"/><path class="cls-1" d="M160.1,15.93c2.19,0,3.49.41,4.54,1.42S166,19.6,166,21.86v3.93c0,2.26-.39,3.53-1.39,4.51s-2.35,1.42-4.54,1.42h-13v5.93h-3.17V15.93H160.1m-.8,12.83c1.93,0,2.49-.12,3-.59s.6-1.13.6-3V22.45c0-1.84-.12-2.46-.6-3s-1-.59-3-.59H147.06v9.87Z" transform="translate(-4 -3.21)"/><path class="cls-1" d="M138.55,25.79c0,2.26-.38,3.53-1.39,4.51s-2.34,1.42-4.53,1.42H122c-2.19,0-3.5-.41-4.54-1.42S116,28.05,116,25.79V21.86c0-2.26.38-3.53,1.39-4.51s2.35-1.42,4.54-1.42h10.67c2.19,0,3.49.41,4.53,1.42s1.39,2.25,1.39,4.51v3.93M119.2,25.2c0,1.84.12,2.46.59,3s1,.59,3,.59h9.07c1.92,0,2.49-.12,3-.59s.59-1.13.59-3V22.45c0-1.84-.12-2.46-.59-3s-1-.59-3-.59h-9.07c-1.93,0-2.49.12-3,.59s-.59,1.13-.59,3Z" transform="translate(-4 -3.21)"/><path class="cls-1" d="M110.88,27.07c-.54,3.38-2.14,4.65-5.93,4.65H94.28c-2.2,0-3.53-.41-4.54-1.42S88.35,28,88.35,25.79V21.86c0-2.26.38-3.53,1.39-4.51s2.34-1.42,4.54-1.42H105c2.19,0,3.52.41,4.53,1.39s1.4,2.19,1.4,4.54v3H91.52v.47c0,1.84.12,2.46.59,3s1,.59,3,.59h9.07c1.89,0,2.46-.12,3-.59a2.32,2.32,0,0,0,.59-1.57l3.18.38m-3.18-5c0-2.87-.42-3.26-3.55-3.26H95.08c-3.14,0-3.56.39-3.56,3.26Z" transform="translate(-4 -3.21)"/><path class="cls-1" d="M61,10h3.18v6h13c2.2,0,3.5.41,4.54,1.42s1.39,2.25,1.39,4.51v9.86H79.93V22.45c0-1.84-.12-2.46-.59-3s-1-.59-3-.59H64.14V31.72H61V10" transform="translate(-4 -3.21)"/><path class="cls-1" d="M55.42,27c-.44,3.44-2.07,4.74-5.93,4.74H38.83c-2.2,0-3.5-.41-4.54-1.42s-1.39-2.25-1.39-4.51V21.86c0-2.26.38-3.53,1.39-4.51s2.34-1.42,4.54-1.42H49.49c3.86,0,5.49,1.3,5.93,4.74l-3.14.41a2.47,2.47,0,0,0-.59-1.6c-.54-.47-1.07-.59-3-.59H39.63c-1.93,0-2.49.12-3,.59s-.59,1.13-.59,3V25.2c0,1.84.12,2.46.59,3s1,.59,3,.59h9.09c1.9,0,2.43-.12,3-.59a2.44,2.44,0,0,0,.59-1.6l3.14.41" transform="translate(-4 -3.21)"/></g><path id="C" class="cls-2" d="M16.61,3.94C32.29.43,39.24,10.69,39.24,10.69a12.27,12.27,0,0,0-9.51,3.9A24.9,24.9,0,0,0,16.61,3.94M40.27,37.32s-4.47,1.14-10.46-3c0,0-5.13,9-13.5,11.51,0,0,13.79,5,24-8.56M10.81,25.23a14.92,14.92,0,0,1,12-14.39,15.88,15.88,0,0,0-3.4-.37C10.91,10.47,4,17.08,4,25.23S10.91,40,19.44,40a15.88,15.88,0,0,0,3.4-.36,14.92,14.92,0,0,1-12-14.39" transform="translate(-4 -3.21)"/></svg>